<?xml version="1.0" encoding="iso-8859-1"?>
<!-- Generator: Adobe Illustrator 19.0.0, SVG Export Plug-In . SVG Version: 6.00 Build 0)  -->
<svg version="1.1" id="Capa_1" xmlns="http://www.w3.org/2000/svg" xmlns:xlink="http://www.w3.org/1999/xlink" x="0px" y="0px"
	 viewBox="0 0 463.988 463.988" style="enable-background:new 0 0 463.988 463.988;" xml:space="preserve">
<g>
	<g>
		<path d="M415.65,61.848c0-0.096,0-0.184,0-0.28c-0.382-1.227-1.093-2.326-2.056-3.176c-0.451-0.451-0.953-0.849-1.496-1.184
			c-0.307-0.181-0.625-0.341-0.952-0.48c-0.228-0.13-0.463-0.248-0.704-0.352l-176-56c-1.577-0.501-3.271-0.501-4.848,0l-176,56
			c-3.327,1.046-5.593,4.128-5.6,7.616v192c0.003,3.491,2.27,6.577,5.6,7.624l176,56c1.577,0.501,3.271,0.501,4.848,0l32-10.176
			c4.213-1.339,6.543-5.839,5.204-10.052s-5.839-6.543-10.052-5.204l-21.6,6.864v-29.056c0-4.418-3.582-8-8-8s-8,3.582-8,8v29.056
			l-160-50.904V69.84l53.336-16.968l149.6,47.608l-34.936,11.112l-133.6-42.496c-4.211-1.339-8.709,0.989-10.048,5.2
			c-1.339,4.211,0.989,8.709,5.2,10.048l130.448,41.496v114.152c0,4.418,3.582,8,8,8s8-3.582,8-8V125.84l45.336-14.4v53.072
			c0,4.418,3.582,8,8,8c0.814-0.005,1.623-0.132,2.4-0.376l18.664-5.952c4.211-1.339,6.539-5.837,5.2-10.048
			c-1.339-4.211-5.837-6.539-10.048-5.2l-8.24,2.624v-47.2l41.328-13.152v47.2l-9.088,2.888c-4.211,1.339-6.539,5.837-5.2,10.048
			c1.053,3.313,4.125,5.566,7.6,5.576c0.815,0.001,1.625-0.126,2.4-0.376l14.672-4.664c3.33-1.047,5.597-4.133,5.6-7.624V88.088
			l41.376-13.152v175.2l-10.4,3.32c-4.251,1.204-6.722,5.625-5.518,9.877c1.204,4.251,5.626,6.722,9.877,5.518
			c0.148-0.042,0.296-0.088,0.442-0.139l16-5.096c3.33-1.047,5.597-4.133,5.6-7.624v-192
			C415.978,63.265,415.862,62.544,415.65,61.848z M293.322,92.08l-149.6-47.6l30.944-9.848l149.6,47.6L293.322,92.08z M350.65,73.84
			L201.058,26.232l30.936-9.84l149.6,47.6L350.65,73.84z"/>
	</g>
</g>
<g>
	<g>
		<path d="M87.994,199.992c-4.418,0-8,3.582-8,8v24c0,4.418,3.582,8,8,8s8-3.582,8-8v-24
			C95.994,203.574,92.412,199.992,87.994,199.992z"/>
	</g>
</g>
<g>
	<g>
		<path d="M119.994,207.992c-4.418,0-8,3.582-8,8v24c0,4.418,3.582,8,8,8s8-3.582,8-8v-24
			C127.994,211.574,124.412,207.992,119.994,207.992z"/>
	</g>
</g>
<g>
	<g>
		<path d="M359.994,223.992c-4.418,0-8,3.582-8,8v112c-0.044,39.746-32.254,71.956-72,72h-96c-4.418,0-8,3.582-8,8v16.632
			l-58.048-40.632l58.048-40.632v16.632c0,4.418,3.582,8,8,8h72c26.499-0.026,47.974-21.501,48-48v-32c0-4.418-3.582-8-8-8
			s-8,3.582-8,8v32c0,17.673-14.327,32-32,32h-64v-24c-0.002-4.418-3.586-7.998-8.004-7.996c-1.638,0.001-3.237,0.505-4.58,1.444
			l-80,56c-3.619,2.535-4.497,7.524-1.962,11.142c0.535,0.763,1.199,1.427,1.962,1.962l80,56c3.621,2.532,8.609,1.649,11.14-1.972
			c0.939-1.343,1.443-2.941,1.444-4.58v-24h88c48.577-0.057,87.943-39.423,88-88v-112
			C367.994,227.574,364.412,223.992,359.994,223.992z"/>
	</g>
</g>
<g>
	<g>
		<path d="M295.994,247.992c-4.418,0-8,3.582-8,8v16c0,4.418,3.582,8,8,8s8-3.582,8-8v-16
			C303.994,251.574,300.412,247.992,295.994,247.992z"/>
	</g>
</g>
<g>
	<g>
		<path d="M359.994,175.992c-4.418,0-8,3.582-8,8v16c0,4.418,3.582,8,8,8s8-3.582,8-8v-16
			C367.994,179.574,364.412,175.992,359.994,175.992z"/>
	</g>
</g>
<g>
	<g>
		<path d="M327.994,207.992c-4.418,0-8,3.582-8,8v64c0,4.418,3.582,8,8,8s8-3.582,8-8v-64
			C335.994,211.574,332.412,207.992,327.994,207.992z"/>
	</g>
</g>
<g>
</g>
<g>
</g>
<g>
</g>
<g>
</g>
<g>
</g>
<g>
</g>
<g>
</g>
<g>
</g>
<g>
</g>
<g>
</g>
<g>
</g>
<g>
</g>
<g>
</g>
<g>
</g>
<g>
</g>
</svg>
